<svg xmlns="http://www.w3.org/2000/svg" xmlns:xlink="http://www.w3.org/1999/xlink" id="Layer_1" x="0" y="0" version="1.1" viewBox="0 0 250 100" xml:space="preserve" style="enable-background:new 0 0 250 100"><style type="text/css">.st0{fill:#7fc6ae}</style><g><path d="M71.1,65.7c1,0,1.9,0.2,2.7,0.7c5.5-8.1,11-19,15.7-32.2h7.3c-4.6,13.6-10.9,28.9-19.2,40 c5.8,0,12.2-2.7,17.4-8.4l0.8-0.9c1.5,0.7,3.5,2.4,4.3,3.9c-5.8,6.9-16.5,11-23.2,11c-1.4,0-2.7,0-4-0.2c-6,6.2-13,10.1-20.9,10.1 c-5.8,0-9.3-3.1-9.9-7.3c-5.3,4.4-11.1,7.3-15.6,7.3c-9.2,0-12.6-7.7-7.7-16.1l22.9-39.5h11.2L28.5,76.6c-2.6,4.5-1.2,6.2,1.3,6.2 c4.8,0,11.7-5.3,18.6-16.5l18.6-32.2h11.2L54,76.6c-2.6,4.5-1.2,6.2,1.3,6.2c2.6,0,6.3-2.2,10.4-6.3c-0.8-1.1-1.2-2.5-1.2-4 C64.5,68.8,67.4,65.7,71.1,65.7z" class="st0"/><path d="M149.4,64.9c1.5,0.7,3.5,2.4,4.3,3.9c-9.4,10.9-20.2,20.9-29.5,20.9c-5.8,0-9.3-3.1-9.8-7.4 c-5.5,4.5-11.1,7.4-15.7,7.4c-9.2,0-12.5-7.7-7.7-16.1l15.9-27.5c4.8-8.3,13.3-13.1,19.4-13.1c7.4,0,12.3,6.6,11.9,11.4h6.4 l-18.3,32.1c-2.6,4.5-1.2,6.2,1.3,6.2c5,0,13-7.5,21.1-17L149.4,64.9z M100.7,76.6c-2.6,4.5-1.2,6.2,1.3,6.2 c4.7,0,11.4-5.1,18.3-15.9l8.8-15.5c5.6-10.2-6.5-13-12.6-2.4L100.7,76.6z" class="st0"/><path d="M135.6,88.7l45.2-78.5h11.3l-16.1,28c11.6-10.6,28.8-4.6,18.2,13.5l-3.1,5.2c-5.3,9.3-13.7,14.5-21.7,13.5v4.7 c0,5.1,2.4,7.6,4.9,7.6c5,0,13-7.5,21.1-17l0.8-0.9c1.5,0.7,3.5,2.4,4.3,3.9c-9.4,10.9-20.2,20.9-29.5,20.9c-9.2,0-11-4.9-11-14.6 v-9l-13,22.6H135.6z M184.9,47.9c4-6.9-4.9-11.9-18,6.3l-3.3,5.7c2.5,7.4,12.4,3.3,15.8-2.6L184.9,47.9z" class="st0"/><path d="M224.4,64.9c1.5,0.7,3.5,2.4,4.3,3.9c-9.4,10.9-20.2,20.9-29.5,20.9c-9.2,0-12.5-7.7-7.7-16.1l22.8-39.5h11.3 l-24.3,42.4c-2.6,4.5-1.2,6.2,1.3,6.2c5,0,13-7.5,21.1-17L224.4,64.9z M226.9,15.2c3.7,0,6.6,2.9,6.6,6.7s-2.9,6.5-6.6,6.5 s-6.5-2.8-6.5-6.5S223.2,15.2,226.9,15.2z" class="st0"/></g></svg>